<svg width="60" height="36" viewBox="0 0 60 36" fill="none" xmlns="http://www.w3.org/2000/svg">
<path d="M0 30.8841C0 14.3156 13.4315 0.884155 30 0.884155C46.5685 0.884155 60 14.3156 60 30.8841C60 32.3205 59.8991 33.7333 59.7039 35.1159C51.8266 32.0988 41.4152 30.2636 30 30.2636C18.5848 30.2636 8.17346 32.0988 0.296127 35.1159C0.100937 33.7333 0 32.3205 0 30.8841Z" fill="white"/>
<path d="M5 27.2637C5 13.4566 16.1929 2.26367 30 2.26367C43.8071 2.26367 55 13.4566 55 27.2637C55 29.3566 54.7428 31.3895 54.2583 33.3324C47.2806 31.3915 38.9488 30.2637 30 30.2637C21.0512 30.2637 12.7194 31.3915 5.74167 33.3324C5.25718 31.3895 5 29.3566 5 27.2637Z" fill="#C20000"/>
</svg>
